<?xml version="1.0" encoding="UTF-8"?><svg id="a" xmlns="http://www.w3.org/2000/svg" viewBox="0 0 1377.22 768"><defs><style>.b{fill:#fff;}</style></defs><polyline points="1377.22 0 1377.22 768 0 768 0 0"/><g><path class="b" d="M504.82,299.82l18.82-51.14h-42.97l-18.82,51.14-52.47,142.75h149.58l52.3-142.75h-106.44Zm25.98,102.44h-63.63l22.82-62.13h63.63l-22.82,62.13Z"/><polygon class="b" points="700.27 340.13 715.08 299.82 623.17 299.82 570.7 442.57 613.68 442.57 651.32 340.13 700.27 340.13"/><path class="b" d="M827.61,299.82h-100.57l-14.81,40.31h57.58l-4,10.83h-106.44l-33.65,91.61h149.58l52.3-142.75Zm-80.45,102.44h-63.63l4-10.83h63.63l-4,10.83Z"/><path class="b" d="M839.65,299.66l-52.47,142.75h106.61l-4,10.99h-106.44l-14.82,40.31h149.25l71.29-194.05h-149.41Zm68.96,102.44h-63.63l22.82-62.13h63.63l-22.82,62.13Z"/></g></svg>