<?xml version="1.0" encoding="UTF-8"?><svg id="a" xmlns="http://www.w3.org/2000/svg" viewBox="0 0 856.44 709.06"><defs><style>.b{font-size:19.72px;}.b,.c{fill:#fff;font-family:Gotham-Bold, Gotham;}.d{fill:#f27421;}.c{font-size:63.53px;}.e{letter-spacing:0em;}.f{fill:#3d246c;}.g{fill:#164899;}.h{fill:#c72127;}.i{fill:#0f9848;}.j{fill:#483714;}.k{letter-spacing:-.05em;}</style></defs><g><path class="h" d="M335.27,313.93c30.48,6.42,68.5,10.99,117.82,.97,123.1-25.02,148.79-100.05,223.11-79.47,23.29,6.45,44.74,15.62,63.79,26.79,30.81-10.1,56.7-13.94,75.33-18.15,19.32-4.36,26.93-12.53,31.76-20.31,20.19-32.57-34.05-116.74-100.44-164.49C633.73-21.93,472.45-7.3,460.31,29.84c-6.25,19.12,30.36,33.97,34.79,77.6,3.95,38.93-20.4,74.48-46.18,101.38-3.5,15.26-9.04,29.31-16.82,41.04-27.63,41.65-67.86,27.03-96.83,64.07Z"/><path class="i" d="M603.54,497.82c-114.84,.91-173.45,102-228.98,135.26,66.18,39.76,156.66,74.78,255.25,75.93,20.1,.23,200.23,3.13,223.11-79.47,15.45-55.79-20.94-117.17-85.58-155.5-54.41,22.26-129.07,23.89-155.69,23.84-5.17,0-4.47-.09-8.1-.06Z"/><path class="g" d="M.83,264.5c7.67,40.06,59.96,53.82,99.61,123.3,29.57,51.81,31.78,98.96,33.25,130.15,5.48,116.63-57.19,164.47-41.37,181.17,17.98,18.98,128.81-11.21,192.54-89.03-62.99-73.78-102.83-247.84-45.17-297.67,9.12-7.88,18.89-10.84,29.91-10.98-4.71-32.03-2.77-60.8,7.37-77.67,27.11-45.08,96.3,22.14,171.93-14.94,13.55-59.04-3.89-136.51-44.68-170.85C347.64-9.69,250.94,57.69,88.74,167.8,40.06,200.85-6.84,224.49,.83,264.5Z"/><path class="d" d="M739.99,262.22c-34.16,11.2-74.36,30.08-117.41,65.67-30.02,24.82-26.54,27.53-60.54,53.97-70.78,55.03-142.67,110.91-203.6,78.43-12.5-6.66-24.03-16.79-34.39-29.2-28.3-33.91-47.85-84.95-54.43-129.65-11.02,.14-20.79,3.1-29.91,10.98-57.66,49.83-17.82,223.89,45.17,297.67,16.3,19.09,34.15,31.49,52.27,33.25,12.72,1.24,24.99-2.82,37.42-10.27-28.2-16.94-51.98-34.74-70.1-51.16-28.43-25.77-42.91-48.12-38.5-58.31,4.36-10.07,25.14-3.6,59.95,2.68,36.55,6.6,88.57,12.99,153.44-.2,123.1-25.02,148.79-100.05,223.11-79.47,23.73,6.57,45.55,15.97,64.86,27.42,28.87-11.81,52.05-29.42,59.32-55.68,15.54-56.1-21.34-117.84-86.65-156.13Z"/><path class="f" d="M269.61,301.44c6.58,44.7,26.13,95.75,54.43,129.65,10.36,12.41,21.89,22.53,34.39,29.2,60.93,32.49,132.82-23.4,203.6-78.43,34.01-26.44,30.52-29.15,60.54-53.97,43.06-35.59,83.26-54.47,117.41-65.67-19.05-11.16-40.5-20.34-63.79-26.79-74.32-20.58-100,54.44-223.11,79.47-49.33,10.03-87.34,5.45-117.82-.97,28.97-37.04,69.2-22.43,96.83-64.07,7.78-11.73,13.32-25.78,16.82-41.04-75.63,37.09-144.83-30.13-171.93,14.94-10.15,16.87-12.09,45.64-7.37,77.67Z"/><path class="j" d="M702.46,446.62c-74.32-20.58-100,54.44-223.11,79.47-64.87,13.19-116.89,6.8-153.44,.2-34.81-6.28-55.6-12.75-59.95-2.68-4.41,10.19,10.06,32.54,38.5,58.31,18.11,16.42,41.89,34.21,70.1,51.16,55.53-33.26,114.14-134.35,228.98-135.26,3.63-.03,2.93,.05,8.1,.06,26.62,.04,101.27-1.59,155.69-23.84-19.31-11.45-41.13-20.85-64.86-27.42Z"/></g><text class="c" transform="translate(355.63 379.36)"><tspan x="0" y="0">US</tspan><tspan class="k" x="88.69" y="0">D</tspan><tspan class="e" x="135.19" y="0">A</tspan></text><text class="b" transform="translate(397.03 421.12)"><tspan x="0" y="0">REDESIGN</tspan></text></svg>